<mxfile host="app.diagrams.net" modified="2024-04-18T07:19:21.302Z" agent="Mozilla/5.0 (Windows NT 10.0; Win64; x64) AppleWebKit/537.36 (KHTML, like Gecko) Chrome/123.0.0.0 Safari/537.36" etag="vXRQaWWPD52qNGFVisGK" version="24.2.5" type="github">
  <diagram name="Page-1" id="e7e014a7-5840-1c2e-5031-d8a46d1fe8dd">
    <mxGraphModel dx="880" dy="472" grid="1" gridSize="10" guides="1" tooltips="1" connect="1" arrows="1" fold="1" page="1" pageScale="1" pageWidth="1169" pageHeight="826" background="none" math="0" shadow="0">
      <root>
        <mxCell id="0" />
        <mxCell id="1" parent="0" />
        <mxCell id="2" value="User" style="swimlane;whiteSpace=wrap" parent="1" vertex="1">
          <mxGeometry x="164.5" y="128" width="280" height="570" as="geometry" />
        </mxCell>
        <mxCell id="21" value="Search Recipe" style="rhombus;fillColor=#ffffc0;strokeColor=#ff0000;" parent="2" vertex="1">
          <mxGeometry x="60" y="110" width="110" height="52" as="geometry" />
        </mxCell>
        <mxCell id="4pB_s8lxm5XnCkg94UZL-44" value="" style="endArrow=open;strokeColor=#FF0000;endFill=1;rounded=0;exitX=0.5;exitY=1;exitDx=0;exitDy=0;" edge="1" parent="2" source="21" target="4pB_s8lxm5XnCkg94UZL-45">
          <mxGeometry relative="1" as="geometry">
            <mxPoint x="114.5" y="172" as="sourcePoint" />
            <mxPoint x="115.5" y="202" as="targetPoint" />
          </mxGeometry>
        </mxCell>
        <mxCell id="4pB_s8lxm5XnCkg94UZL-58" value="Yes" style="edgeLabel;html=1;align=center;verticalAlign=middle;resizable=0;points=[];" vertex="1" connectable="0" parent="4pB_s8lxm5XnCkg94UZL-44">
          <mxGeometry x="-0.1011" y="-1" relative="1" as="geometry">
            <mxPoint as="offset" />
          </mxGeometry>
        </mxCell>
        <mxCell id="4pB_s8lxm5XnCkg94UZL-45" value="Input Search" style="" vertex="1" parent="2">
          <mxGeometry x="60" y="222" width="110" height="50" as="geometry" />
        </mxCell>
        <mxCell id="18" value="Display Item&#xa;Recipe" style="" parent="2" vertex="1">
          <mxGeometry x="75" y="339" width="80" height="50" as="geometry" />
        </mxCell>
        <mxCell id="4pB_s8lxm5XnCkg94UZL-69" value="" style="endArrow=open;strokeColor=#FF0000;endFill=1;rounded=0;exitX=0;exitY=0.5;exitDx=0;exitDy=0;entryX=0;entryY=0.5;entryDx=0;entryDy=0;" edge="1" parent="2" source="4pB_s8lxm5XnCkg94UZL-45" target="21">
          <mxGeometry relative="1" as="geometry">
            <mxPoint x="125" y="172" as="sourcePoint" />
            <mxPoint x="-4.5" y="92" as="targetPoint" />
            <Array as="points">
              <mxPoint x="35.5" y="247" />
              <mxPoint x="35.5" y="136" />
            </Array>
          </mxGeometry>
        </mxCell>
        <mxCell id="4pB_s8lxm5XnCkg94UZL-70" value="No" style="edgeLabel;html=1;align=center;verticalAlign=middle;resizable=0;points=[];" vertex="1" connectable="0" parent="4pB_s8lxm5XnCkg94UZL-69">
          <mxGeometry x="-0.1011" y="-1" relative="1" as="geometry">
            <mxPoint as="offset" />
          </mxGeometry>
        </mxCell>
        <mxCell id="4pB_s8lxm5XnCkg94UZL-88" value="" style="endArrow=open;strokeColor=#FF0000;endFill=1;rounded=0;exitX=0.5;exitY=1;exitDx=0;exitDy=0;" edge="1" parent="2" source="4pB_s8lxm5XnCkg94UZL-63">
          <mxGeometry relative="1" as="geometry">
            <mxPoint x="348" y="262" as="sourcePoint" />
            <mxPoint x="155" y="347" as="targetPoint" />
            <Array as="points">
              <mxPoint x="338.5" y="347" />
            </Array>
          </mxGeometry>
        </mxCell>
        <mxCell id="4pB_s8lxm5XnCkg94UZL-101" value="Text" style="edgeLabel;html=1;align=center;verticalAlign=middle;resizable=0;points=[];" vertex="1" connectable="0" parent="4pB_s8lxm5XnCkg94UZL-88">
          <mxGeometry x="-0.7005" y="1" relative="1" as="geometry">
            <mxPoint as="offset" />
          </mxGeometry>
        </mxCell>
        <mxCell id="4pB_s8lxm5XnCkg94UZL-102" value="Found Recipe" style="edgeLabel;html=1;align=center;verticalAlign=middle;resizable=0;points=[];" vertex="1" connectable="0" parent="4pB_s8lxm5XnCkg94UZL-88">
          <mxGeometry x="-0.7106" y="4" relative="1" as="geometry">
            <mxPoint as="offset" />
          </mxGeometry>
        </mxCell>
        <mxCell id="4pB_s8lxm5XnCkg94UZL-89" value="" style="endArrow=open;strokeColor=#FF0000;endFill=1;rounded=0;exitX=1;exitY=0.5;exitDx=0;exitDy=0;" edge="1" parent="2" target="4pB_s8lxm5XnCkg94UZL-90">
          <mxGeometry relative="1" as="geometry">
            <mxPoint x="155" y="372" as="sourcePoint" />
            <mxPoint x="215.5" y="372" as="targetPoint" />
          </mxGeometry>
        </mxCell>
        <mxCell id="4pB_s8lxm5XnCkg94UZL-90" value="TAP" style="" vertex="1" parent="2">
          <mxGeometry x="225.5" y="358" width="44.8" height="28" as="geometry" />
        </mxCell>
        <mxCell id="4pB_s8lxm5XnCkg94UZL-96" value="Category" style="rhombus;fillColor=#ffffc0;strokeColor=#ff0000;" vertex="1" parent="2">
          <mxGeometry x="189.92000000000002" y="272" width="80.38" height="38" as="geometry" />
        </mxCell>
        <mxCell id="4pB_s8lxm5XnCkg94UZL-97" value="" style="endArrow=open;strokeColor=#FF0000;endFill=1;rounded=0;exitX=1;exitY=0.75;exitDx=0;exitDy=0;entryX=0.506;entryY=0.029;entryDx=0;entryDy=0;entryPerimeter=0;" edge="1" parent="2" source="4pB_s8lxm5XnCkg94UZL-45" target="4pB_s8lxm5XnCkg94UZL-96">
          <mxGeometry relative="1" as="geometry">
            <mxPoint x="180.5" y="257" as="sourcePoint" />
            <mxPoint x="255.5" y="262" as="targetPoint" />
            <Array as="points">
              <mxPoint x="230.5" y="259" />
            </Array>
          </mxGeometry>
        </mxCell>
        <mxCell id="4pB_s8lxm5XnCkg94UZL-98" value="" style="endArrow=open;strokeColor=#FF0000;endFill=1;rounded=0;exitX=0;exitY=0.5;exitDx=0;exitDy=0;entryX=0.5;entryY=0;entryDx=0;entryDy=0;" edge="1" parent="2" source="4pB_s8lxm5XnCkg94UZL-96" target="18">
          <mxGeometry relative="1" as="geometry">
            <mxPoint x="180" y="270" as="sourcePoint" />
            <mxPoint x="165.5" y="322" as="targetPoint" />
            <Array as="points">
              <mxPoint x="115.5" y="292" />
            </Array>
          </mxGeometry>
        </mxCell>
        <mxCell id="3" value="App" style="swimlane;whiteSpace=wrap" parent="1" vertex="1">
          <mxGeometry x="445" y="128" width="280" height="570" as="geometry" />
        </mxCell>
        <mxCell id="13" value="" style="ellipse;shape=startState;fillColor=#000000;strokeColor=#ff0000;" parent="3" vertex="1">
          <mxGeometry x="175" y="42" width="30" height="30" as="geometry" />
        </mxCell>
        <mxCell id="14" value="" style="edgeStyle=elbowEdgeStyle;elbow=horizontal;verticalAlign=bottom;endArrow=open;endSize=8;strokeColor=#FF0000;endFill=1;rounded=0" parent="3" source="13" target="15" edge="1">
          <mxGeometry x="40" y="20" as="geometry">
            <mxPoint x="170" y="92" as="targetPoint" />
          </mxGeometry>
        </mxCell>
        <mxCell id="15" value="Home List Recipe" style="" parent="3" vertex="1">
          <mxGeometry x="135" y="112" width="110" height="50" as="geometry" />
        </mxCell>
        <mxCell id="16" value="Menu Recipe" style="" parent="3" vertex="1">
          <mxGeometry x="135" y="222" width="110" height="50" as="geometry" />
        </mxCell>
        <mxCell id="17" value="" style="endArrow=open;strokeColor=#FF0000;endFill=1;rounded=0" parent="3" source="15" target="16" edge="1">
          <mxGeometry relative="1" as="geometry" />
        </mxCell>
        <mxCell id="4pB_s8lxm5XnCkg94UZL-56" value="Display Detail&#xa;Recipe" style="" vertex="1" parent="3">
          <mxGeometry x="135" y="336" width="110" height="50" as="geometry" />
        </mxCell>
        <mxCell id="4pB_s8lxm5XnCkg94UZL-57" value="" style="endArrow=open;strokeColor=#FF0000;endFill=1;rounded=0;entryX=0.5;entryY=0;entryDx=0;entryDy=0;" edge="1" parent="3" source="16" target="4pB_s8lxm5XnCkg94UZL-56">
          <mxGeometry relative="1" as="geometry">
            <mxPoint x="195" y="282" as="sourcePoint" />
            <mxPoint x="200.5" y="212" as="targetPoint" />
          </mxGeometry>
        </mxCell>
        <mxCell id="4pB_s8lxm5XnCkg94UZL-41" value="" style="ellipse;shape=startState;fillColor=#000000;strokeColor=#ff0000;" vertex="1" parent="3">
          <mxGeometry x="175" y="482" width="30" height="30" as="geometry" />
        </mxCell>
        <mxCell id="4pB_s8lxm5XnCkg94UZL-62" value="" style="endArrow=open;strokeColor=#FF0000;endFill=1;rounded=0;" edge="1" parent="3" source="4pB_s8lxm5XnCkg94UZL-56" target="4pB_s8lxm5XnCkg94UZL-41">
          <mxGeometry relative="1" as="geometry">
            <mxPoint x="-20.5" y="367" as="sourcePoint" />
            <mxPoint x="145.5" y="367" as="targetPoint" />
          </mxGeometry>
        </mxCell>
        <mxCell id="4pB_s8lxm5XnCkg94UZL-63" value="Filter&#xa;Recipe" style="" vertex="1" parent="3">
          <mxGeometry x="15" y="222" width="85" height="50" as="geometry" />
        </mxCell>
        <mxCell id="4pB_s8lxm5XnCkg94UZL-95" value="" style="endArrow=open;strokeColor=#FF0000;endFill=1;rounded=0;" edge="1" parent="3" source="4pB_s8lxm5XnCkg94UZL-63" target="16">
          <mxGeometry relative="1" as="geometry">
            <mxPoint x="-100" y="257" as="sourcePoint" />
            <mxPoint x="125" y="292" as="targetPoint" />
          </mxGeometry>
        </mxCell>
        <mxCell id="4pB_s8lxm5XnCkg94UZL-103" value="No" style="edgeLabel;html=1;align=center;verticalAlign=middle;resizable=0;points=[];" vertex="1" connectable="0" parent="4pB_s8lxm5XnCkg94UZL-95">
          <mxGeometry x="0.0538" y="-3" relative="1" as="geometry">
            <mxPoint as="offset" />
          </mxGeometry>
        </mxCell>
        <mxCell id="4pB_s8lxm5XnCkg94UZL-43" value="" style="endArrow=open;strokeColor=#FF0000;endFill=1;rounded=0;entryX=1;entryY=0.5;entryDx=0;entryDy=0;" edge="1" parent="1" source="15" target="21">
          <mxGeometry relative="1" as="geometry">
            <mxPoint x="510" y="275" as="sourcePoint" />
            <mxPoint x="360" y="260" as="targetPoint" />
          </mxGeometry>
        </mxCell>
        <mxCell id="4pB_s8lxm5XnCkg94UZL-54" value="" style="endArrow=open;strokeColor=#FF0000;endFill=1;rounded=0;exitX=1;exitY=0.5;exitDx=0;exitDy=0;" edge="1" parent="1" source="4pB_s8lxm5XnCkg94UZL-45" target="4pB_s8lxm5XnCkg94UZL-63">
          <mxGeometry relative="1" as="geometry">
            <mxPoint x="289.5" y="300" as="sourcePoint" />
            <mxPoint x="289.5" y="380" as="targetPoint" />
          </mxGeometry>
        </mxCell>
        <mxCell id="4pB_s8lxm5XnCkg94UZL-91" value="" style="endArrow=open;strokeColor=#FF0000;endFill=1;rounded=0;exitX=1;exitY=0.5;exitDx=0;exitDy=0;entryX=0;entryY=0.75;entryDx=0;entryDy=0;" edge="1" parent="1" source="4pB_s8lxm5XnCkg94UZL-90" target="4pB_s8lxm5XnCkg94UZL-56">
          <mxGeometry relative="1" as="geometry">
            <mxPoint x="329.5" y="510" as="sourcePoint" />
            <mxPoint x="400.5" y="510" as="targetPoint" />
          </mxGeometry>
        </mxCell>
      </root>
    </mxGraphModel>
  </diagram>
</mxfile>
